{
  "accessors": [
    {
      "bufferView": 2,
      "componentType": 5126,
      "count": 11,
      "max": [
        -5.051580429077148,
        -32.06481170654297,
        35.001216888427734
      ],
      "min": [
        -17.447097778320313,
        -35.276039123535156,
        14.651803016662598
      ],
      "type": "VEC3"
    },
    {
      "bufferView": 2,
      "byteOffset": 132,
      "componentType": 5126,
      "count": 11,
      "max": [
        0.0,
        -0.0,
        0.0
      ],
      "min": [
        0.0,
        -0.9999999403953552,
        -1.0
      ],
      "type": "VEC3"
    },
    {
      "bufferView": 1,
      "componentType": 5126,
      "count": 11,
      "max": [
        0.0,
        0.0
      ],
      "min": [
        0.0,
        0.0
      ],
      "type": "VEC2"
    },
    {
      "bufferView": 0,
      "componentType": 5125,
      "count": 21,
      "type": "SCALAR"
    },
    {
      "bufferView": 2,
      "byteOffset": 264,
      "componentType": 5126,
      "count": 133,
      "max": [
        -274.1854553222656,
        11.53918170928955,
        47.75675582885742
      ],
      "min": [
        -277.12701416015625,
        -31.29792022705078,
        42.27702331542969
      ],
      "type": "VEC3"
    },
    {
      "bufferView": 2,
      "byteOffset": 1860,
      "componentType": 5126,
      "count": 133,
      "max": [
        0.999917209148407,
        0.999488890171051,
        0.9139223694801331
      ],
      "min": [
        -0.999899685382843,
        -0.9909234642982483,
        -0.9028283953666687
      ],
      "type": "VEC3"
    },
    {
      "bufferView": 1,
      "byteOffset": 88,
      "componentType": 5126,
      "count": 133,
      "max": [
        0.0,
        0.0
      ],
      "min": [
        0.0,
        0.0
      ],
      "type": "VEC2"
    },
    {
      "bufferView": 0,
      "byteOffset": 84,
      "componentType": 5125,
      "count": 276,
      "type": "SCALAR"
    },
    {
      "bufferView": 2,
      "byteOffset": 3456,
      "componentType": 5126,
      "count": 1867,
      "max": [
        -257.0885925292969,
        11.069611549377441,
        41.07683563232422
      ],
      "min": [
        -294.22991943359375,
        -27.581451416015625,
        13.035873413085938
      ],
      "type": "VEC3"
    },
    {
      "bufferView": 2,
      "byteOffset": 25860,
      "componentType": 5126,
      "count": 1867,
      "max": [
        0.9999804496765137,
        0.9994891881942749,
        1.0
      ],
      "min": [
        -0.999978244304657,
        -0.9994890093803406,
        -1.0
      ],
      "type": "VEC3"
    },
    {
      "bufferView": 1,
      "byteOffset": 1152,
      "componentType": 5126,
      "count": 1867,
      "max": [
        0.0,
        0.0
      ],
      "min": [
        0.0,
        0.0
      ],
      "type": "VEC2"
    },
    {
      "bufferView": 0,
      "byteOffset": 1188,
      "componentType": 5125,
      "count": 5688,
      "type": "SCALAR"
    },
    {
      "bufferView": 2,
      "byteOffset": 48264,
      "componentType": 5126,
      "count": 82,
      "max": [
        -274.0086669921875,
        -1.2659376859664917,
        48.46794509887695
      ],
      "min": [
        -277.2678527832031,
        -13.932755470275879,
        14.52942943572998
      ],
      "type": "VEC3"
    },
    {
      "bufferView": 2,
      "byteOffset": 49248,
      "componentType": 5126,
      "count": 82,
      "max": [
        0.9999477863311768,
        0.999488890171051,
        0.8652565479278564
      ],
      "min": [
        -0.9999477863311768,
        -0.999488890171051,
        -1.0
      ],
      "type": "VEC3"
    },
    {
      "bufferView": 1,
      "byteOffset": 16088,
      "componentType": 5126,
      "count": 82,
      "max": [
        0.0,
        0.0
      ],
      "min": [
        0.0,
        0.0
      ],
      "type": "VEC2"
    },
    {
      "bufferView": 0,
      "byteOffset": 23940,
      "componentType": 5125,
      "count": 180,
      "type": "SCALAR"
    },
    {
      "bufferView": 2,
      "byteOffset": 50232,
      "componentType": 5126,
      "count": 48,
      "max": [
        297.9012451171875,
        424.7911071777344,
        14.546120643615723
      ],
      "min": [
        -302.60284423828125,
        -428.8174133300781,
        8.927641868591309
      ],
      "type": "VEC3"
    },
    {
      "bufferView": 2,
      "byteOffset": 50808,
      "componentType": 5126,
      "count": 48,
      "max": [
        1.0,
        1.0,
        1.0
      ],
      "min": [
        -1.0,
        -1.0,
        -1.0
      ],
      "type": "VEC3"
    },
    {
      "bufferView": 3,
      "componentType": 5126,
      "count": 48,
      "max": [
        1.0,
        1.0,
        1.0,
        1.0
      ],
      "min": [
        0.0,
        0.0,
        -1.0,
        1.0
      ],
      "type": "VEC4"
    },
    {
      "bufferView": 1,
      "byteOffset": 16744,
      "componentType": 5126,
      "count": 48,
      "max": [
        0.5797449946403503,
        0.9864040017127991
      ],
      "min": [
        0.019923999905586243,
        0.015567000024020672
      ],
      "type": "VEC2"
    },
    {
      "bufferView": 0,
      "byteOffset": 24660,
      "componentType": 5125,
      "count": 72,
      "type": "SCALAR"
    },
    {
      "bufferView": 2,
      "byteOffset": 51384,
      "componentType": 5126,
      "count": 96,
      "max": [
        252.3798065185547,
        324.5136413574219,
        96.68903350830078
      ],
      "min": [
        -14.08446979522705,
        -31.075315475463867,
        28.772642135620117
      ],
      "type": "VEC3"
    },
    {
      "bufferView": 2,
      "byteOffset": 52536,
      "componentType": 5126,
      "count": 96,
      "max": [
        0.9850462079048157,
        0.9850459694862366,
        0.0
      ],
      "min": [
        -0.9850462079048157,
        -0.9999999403953552,
        0.0
      ],
      "type": "VEC3"
    },
    {
      "bufferView": 1,
      "byteOffset": 17128,
      "componentType": 5126,
      "count": 96,
      "max": [
        0.0,
        0.0
      ],
      "min": [
        0.0,
        0.0
      ],
      "type": "VEC2"
    },
    {
      "bufferView": 0,
      "byteOffset": 24948,
      "componentType": 5125,
      "count": 144,
      "type": "SCALAR"
    },
    {
      "bufferView": 2,
      "byteOffset": 53688,
      "componentType": 5126,
      "count": 24,
      "max": [
        299.25262451171875,
        423.7865905761719,
        13.328832626342773
      ],
      "min": [
        -299.25262451171875,
        -423.7865905761719,
        -0.04518548399209976
      ],
      "type": "VEC3"
    },
    {
      "bufferView": 2,
      "byteOffset": 53976,
      "componentType": 5126,
      "count": 24,
      "max": [
        1.0,
        1.0,
        1.0
      ],
      "min": [
        -1.0,
        -1.0,
        -1.0
      ],
      "type": "VEC3"
    },
    {
      "bufferView": 1,
      "byteOffset": 17896,
      "componentType": 5126,
      "count": 24,
      "max": [
        0.9313399791717529,
        0.978659987449646
      ],
      "min": [
        0.08088599890470505,
        0.025087999179959297
      ],
      "type": "VEC2"
    },
    {
      "bufferView": 0,
      "byteOffset": 25524,
      "componentType": 5125,
      "count": 36,
      "type": "SCALAR"
    },
    {
      "bufferView": 2,
      "byteOffset": 54264,
      "componentType": 5126,
      "count": 9858,
      "max": [
        286.176513671875,
        406.8531799316406,
        195.99229431152344
      ],
      "min": [
        -293.40570068359375,
        -421.5135803222656,
        -5.626803398132324
      ],
      "type": "VEC3"
    },
    {
      "bufferView": 2,
      "byteOffset": 172560,
      "componentType": 5126,
      "count": 9858,
      "max": [
        1.0,
        1.0,
        1.0
      ],
      "min": [
        -1.0,
        -1.0,
        -1.0
      ],
      "type": "VEC3"
    },
    {
      "bufferView": 1,
      "byteOffset": 18088,
      "componentType": 5126,
      "count": 9858,
      "max": [
        0.0,
        0.0
      ],
      "min": [
        0.0,
        0.0
      ],
      "type": "VEC2"
    },
    {
      "bufferView": 0,
      "byteOffset": 25668,
      "componentType": 5125,
      "count": 22122,
      "type": "SCALAR"
    },
    {
      "bufferView": 2,
      "byteOffset": 290856,
      "componentType": 5126,
      "count": 7317,
      "max": [
        285.5146179199219,
        405.85260009765625,
        74.8412857055664
      ],
      "min": [
        -292.90655517578125,
        -421.81768798828125,
        11.834712982177734
      ],
      "type": "VEC3"
    },
    {
      "bufferView": 2,
      "byteOffset": 378660,
      "componentType": 5126,
      "count": 7317,
      "max": [
        1.0,
        1.0,
        1.0
      ],
      "min": [
        -1.0,
        -1.0,
        -1.0
      ],
      "type": "VEC3"
    },
    {
      "bufferView": 1,
      "byteOffset": 96952,
      "componentType": 5126,
      "count": 7317,
      "max": [
        0.0,
        0.0
      ],
      "min": [
        0.0,
        0.0
      ],
      "type": "VEC2"
    },
    {
      "bufferView": 0,
      "byteOffset": 114156,
      "componentType": 5125,
      "count": 14604,
      "type": "SCALAR"
    },
    {
      "bufferView": 2,
      "byteOffset": 466464,
      "componentType": 5126,
      "count": 312,
      "max": [
        264.7132568359375,
        328.6053161621094,
        136.5177459716797
      ],
      "min": [
        -38.79391098022461,
        -35.74319076538086,
        14.563591957092285
      ],
      "type": "VEC3"
    },
    {
      "bufferView": 2,
      "byteOffset": 470208,
      "componentType": 5126,
      "count": 312,
      "max": [
        0.9986091256141663,
        0.9986093044281006,
        1.0
      ],
      "min": [
        -0.9986091256141663,
        -0.9999740719795227,
        -1.0
      ],
      "type": "VEC3"
    },
    {
      "bufferView": 1,
      "byteOffset": 155488,
      "componentType": 5126,
      "count": 312,
      "max": [
        0.0,
        0.0
      ],
      "min": [
        0.0,
        0.0
      ],
      "type": "VEC2"
    },
    {
      "bufferView": 0,
      "byteOffset": 172572,
      "componentType": 5125,
      "count": 852,
      "type": "SCALAR"
    },
    {
      "bufferView": 2,
      "byteOffset": 473952,
      "componentType": 5126,
      "count": 1263,
      "max": [
        256.5069580078125,
        189.87672424316406,
        127.46649169921875
      ],
      "min": [
        -253.0137939453125,
        -228.18760681152344,
        11.2492094039917
      ],
      "type": "VEC3"
    },
    {
      "bufferView": 2,
      "byteOffset": 489108,
      "componentType": 5126,
      "count": 1263,
      "max": [
        1.0,
        1.0,
        1.0
      ],
      "min": [
        -1.0,
        -1.0,
        -1.0
      ],
      "type": "VEC3"
    },
    {
      "bufferView": 1,
      "byteOffset": 157984,
      "componentType": 5126,
      "count": 1263,
      "max": [
        0.0,
        0.0
      ],
      "min": [
        0.0,
        0.0
      ],
      "type": "VEC2"
    },
    {
      "bufferView": 0,
      "byteOffset": 175980,
      "componentType": 5125,
      "count": 3246,
      "type": "SCALAR"
    },
    {
      "bufferView": 2,
      "byteOffset": 504264,
      "componentType": 5126,
      "count": 2280,
      "max": [
        274.5150451660156,
        394.856689453125,
        125.35584259033203
      ],
      "min": [
        -242.04847717285156,
        -400.3125305175781,
        11.64321517944336
      ],
      "type": "VEC3"
    },
    {
      "bufferView": 2,
      "byteOffset": 531624,
      "componentType": 5126,
      "count": 2280,
      "max": [
        1.0,
        1.0,
        1.0
      ],
      "min": [
        -1.0,
        -1.0,
        -1.0
      ],
      "type": "VEC3"
    },
    {
      "bufferView": 1,
      "byteOffset": 168088,
      "componentType": 5126,
      "count": 2280,
      "max": [
        0.0,
        0.0
      ],
      "min": [
        0.0,
        0.0
      ],
      "type": "VEC2"
    },
    {
      "bufferView": 0,
      "byteOffset": 188964,
      "componentType": 5125,
      "count": 6516,
      "type": "SCALAR"
    },
    {
      "bufferView": 2,
      "byteOffset": 558984,
      "componentType": 5126,
      "count": 3323,
      "max": [
        277.1162414550781,
        392.2683410644531,
        204.31996154785156
      ],
      "min": [
        -56.28171920776367,
        -34.45927429199219,
        -5.865063190460205
      ],
      "type": "VEC3"
    },
    {
      "bufferView": 2,
      "byteOffset": 598860,
      "componentType": 5126,
      "count": 3323,
      "max": [
        1.0,
        1.0,
        1.0
      ],
      "min": [
        -1.0,
        -1.0,
        -1.0
      ],
      "type": "VEC3"
    },
    {
      "bufferView": 1,
      "byteOffset": 186328,
      "componentType": 5126,
      "count": 3323,
      "max": [
        0.0,
        0.0
      ],
      "min": [
        0.0,
        0.0
      ],
      "type": "VEC2"
    },
    {
      "bufferView": 0,
      "byteOffset": 215028,
      "componentType": 5125,
      "count": 7863,
      "type": "SCALAR"
    },
    {
      "bufferView": 2,
      "byteOffset": 638736,
      "componentType": 5126,
      "count": 6515,
      "max": [
        45.602256774902344,
        25.66636085510254,
        177.3181915283203
      ],
      "min": [
        -67.39177703857422,
        -42.0847282409668,
        14.651803016662598
      ],
      "type": "VEC3"
    },
    {
      "bufferView": 2,
      "byteOffset": 716916,
      "componentType": 5126,
      "count": 6515,
      "max": [
        1.0,
        0.9999999403953552,
        1.0
      ],
      "min": [
        -1.0,
        -0.9999999403953552,
        -1.0
      ],
      "type": "VEC3"
    },
    {
      "bufferView": 1,
      "byteOffset": 212912,
      "componentType": 5126,
      "count": 6515,
      "max": [
        0.0,
        0.0
      ],
      "min": [
        0.0,
        0.0
      ],
      "type": "VEC2"
    },
    {
      "bufferView": 0,
      "byteOffset": 246480,
      "componentType": 5125,
      "count": 16380,
      "type": "SCALAR"
    },
    {
      "bufferView": 2,
      "byteOffset": 795096,
      "componentType": 5126,
      "count": 9138,
      "max": [
        272.6087646484375,
        393.0435485839844,
        126.39904022216797
      ],
      "min": [
        -292.38775634765625,
        -400.8192138671875,
        13.596240043640137
      ],
      "type": "VEC3"
    },
    {
      "bufferView": 2,
      "byteOffset": 904752,
      "componentType": 5126,
      "count": 9138,
      "max": [
        1.0,
        1.0,
        1.0
      ],
      "min": [
        -1.0,
        -1.0,
        -1.0
      ],
      "type": "VEC3"
    },
    {
      "bufferView": 1,
      "byteOffset": 265032,
      "componentType": 5126,
      "count": 9138,
      "max": [
        0.0,
        0.0
      ],
      "min": [
        0.0,
        0.0
      ],
      "type": "VEC2"
    },
    {
      "bufferView": 0,
      "byteOffset": 312000,
      "componentType": 5125,
      "count": 16812,
      "type": "SCALAR"
    },
    {
      "bufferView": 2,
      "byteOffset": 1014408,
      "componentType": 5126,
      "count": 1125,
      "max": [
        270.024658203125,
        196.4067840576172,
        140.9967803955078
      ],
      "min": [
        -257.6514587402344,
        -405.38079833984375,
        34.249053955078125
      ],
      "type": "VEC3"
    },
    {
      "bufferView": 2,
      "byteOffset": 1027908,
      "componentType": 5126,
      "count": 1125,
      "max": [
        0.9999216794967651,
        1.0,
        1.0
      ],
      "min": [
        -0.9999216794967651,
        -1.0,
        -1.0
      ],
      "type": "VEC3"
    },
    {
      "bufferView": 1,
      "byteOffset": 338136,
      "componentType": 5126,
      "count": 1125,
      "max": [
        0.0,
        0.0
      ],
      "min": [
        0.0,
        0.0
      ],
      "type": "VEC2"
    },
    {
      "bufferView": 0,
      "byteOffset": 379248,
      "componentType": 5125,
      "count": 2988,
      "type": "SCALAR"
    },
    {
      "bufferView": 2,
      "byteOffset": 1041408,
      "componentType": 5126,
      "count": 6738,
      "max": [
        272.2783203125,
        392.729248046875,
        153.05714416503906
      ],
      "min": [
        -253.55410766601563,
        -402.3899841308594,
        11.2492094039917
      ],
      "type": "VEC3"
    },
    {
      "bufferView": 2,
      "byteOffset": 1122264,
      "componentType": 5126,
      "count": 6738,
      "max": [
        1.0,
        1.0,
        1.0
      ],
      "min": [
        -1.0,
        -1.0,
        -1.0
      ],
      "type": "VEC3"
    },
    {
      "bufferView": 1,
      "byteOffset": 347136,
      "componentType": 5126,
      "count": 6738,
      "max": [
        0.0,
        0.0
      ],
      "min": [
        0.0,
        0.0
      ],
      "type": "VEC2"
    },
    {
      "bufferView": 0,
      "byteOffset": 391200,
      "componentType": 5125,
      "count": 16902,
      "type": "SCALAR"
    }
  ],
  "asset": {
    "extras": {
      "author": "Sba Stuff (https://sketchfab.com/sbastuff)",
      "license": "CC-BY-4.0 (http://creativecommons.org/licenses/by/4.0/)",
      "source": "https://sketchfab.com/3d-models/low-poly-farm-e9bfe26e9abc49f99bf4a33413dbd8da",
      "title": "Low Poly Farm"
    },
    "generator": "Sketchfab-16.12.0",
    "version": "2.0"
  },
  "bufferViews": [
    {
      "buffer": 0,
      "byteLength": 458808,
      "name": "floatBufferViews",
      "target": 34963
    },
    {
      "buffer": 0,
      "byteLength": 401040,
      "byteOffset": 458808,
      "byteStride": 8,
      "name": "floatBufferViews",
      "target": 34962
    },
    {
      "buffer": 0,
      "byteLength": 1203120,
      "byteOffset": 859848,
      "byteStride": 12,
      "name": "floatBufferViews",
      "target": 34962
    },
    {
      "buffer": 0,
      "byteLength": 768,
      "byteOffset": 2062968,
      "byteStride": 16,
      "name": "floatBufferViews",
      "target": 34962
    }
  ],
  "buffers": [
    {
      "byteLength": 2063736,
      "uri": "scene.bin"
    }
  ],
  "images": [
    {
      "uri": "textures/01-Default_00_metallicRoughness.png"
    },
    {
      "uri": "textures/01-Default_00_normal.png"
    },
    {
      "uri": "textures/Box_003_metallicRoughness.png"
    }
  ],
  "materials": [
    {
      "doubleSided": true,
      "name": "01-Default_00",
      "normalTexture": {
        "index": 1
      },
      "occlusionTexture": {
        "index": 0
      },
      "pbrMetallicRoughness": {
        "baseColorFactor": [
          0.732532985489547,
          0.3526297565153481,
          0.22995809073094103,
          1.0
        ],
        "metallicRoughnessTexture": {
          "index": 0
        }
      }
    },
    {
      "doubleSided": true,
      "name": "Black",
      "pbrMetallicRoughness": {
        "baseColorFactor": [
          0.039062,
          0.036542,
          0.039678,
          1.0
        ],
        "metallicFactor": 0.0,
        "roughnessFactor": 0.8267949192431123
      }
    },
    {
      "doubleSided": true,
      "name": "Box_003",
      "pbrMetallicRoughness": {
        "baseColorFactor": [
          0.333333,
          0.666667,
          0.498039,
          1.0
        ],
        "metallicRoughnessTexture": {
          "index": 2
        }
      }
    },
    {
      "doubleSided": true,
      "name": "Brown_04",
      "pbrMetallicRoughness": {
        "baseColorFactor": [
          0.7409556523337896,
          0.22521770984685066,
          0.09753890346030122,
          1.0
        ],
        "metallicFactor": 0.0,
        "roughnessFactor": 0.8267949192431123
      }
    },
    {
      "doubleSided": true,
      "name": "DarkBrown",
      "pbrMetallicRoughness": {
        "baseColorFactor": [
          0.178859,
          0.119481,
          0.061269,
          1.0
        ],
        "metallicFactor": 0.0,
        "roughnessFactor": 0.8267949192431123
      }
    },
    {
      "doubleSided": true,
      "name": "DarkGrey_02",
      "pbrMetallicRoughness": {
        "baseColorFactor": [
          0.05729783433459911,
          0.0360113090591692,
          0.0360113090591692,
          1.0
        ],
        "metallicFactor": 0.0,
        "roughnessFactor": 0.8267949192431123
      }
    },
    {
      "doubleSided": true,
      "name": "DarkGrey_00",
      "pbrMetallicRoughness": {
        "baseColorFactor": [
          0.147311,
          0.147311,
          0.147311,
          1.0
        ],
        "metallicFactor": 0.0,
        "roughnessFactor": 0.8267949192431123
      }
    },
    {
      "doubleSided": true,
      "name": "DarkRed_10",
      "pbrMetallicRoughness": {
        "baseColorFactor": [
          0.16814380844179178,
          0.0499187002512913,
          0.040887673417752166,
          1.0
        ],
        "metallicFactor": 0.0,
        "roughnessFactor": 0.8267949192431123
      }
    },
    {
      "doubleSided": true,
      "name": "Grey_04",
      "pbrMetallicRoughness": {
        "baseColorFactor": [
          0.43854,
          0.43854,
          0.43854,
          1.0
        ],
        "metallicFactor": 0.0,
        "roughnessFactor": 0.8267949192431123
      }
    },
    {
      "doubleSided": true,
      "name": "LightBrown_00",
      "pbrMetallicRoughness": {
        "baseColorFactor": [
          0.410935,
          0.27031,
          0.134209,
          1.0
        ],
        "metallicFactor": 0.0,
        "roughnessFactor": 0.8267949192431123
      }
    },
    {
      "doubleSided": true,
      "name": "LightRed_02",
      "pbrMetallicRoughness": {
        "baseColorFactor": [
          1.0,
          0.011319314104832508,
          0.0,
          1.0
        ],
        "metallicFactor": 0.0,
        "roughnessFactor": 0.8267949192431123
      }
    },
    {
      "doubleSided": true,
      "name": "RoofBlack_01",
      "pbrMetallicRoughness": {
        "baseColorFactor": [
          0.2806968848888971,
          0.2620522877227851,
          0.2620522877227851,
          1.0
        ],
        "metallicFactor": 0.0,
        "roughnessFactor": 0.8267949192431123
      }
    },
    {
      "doubleSided": true,
      "name": "White_10",
      "pbrMetallicRoughness": {
        "baseColorFactor": [
          0.8,
          0.8,
          0.8,
          1.0
        ],
        "metallicFactor": 0.0,
        "roughnessFactor": 0.8267949192431123
      }
    },
    {
      "doubleSided": true,
      "name": "White_16",
      "pbrMetallicRoughness": {
        "baseColorFactor": [
          0.87,
          0.8,
          0.8,
          1.0
        ],
        "metallicFactor": 0.0,
        "roughnessFactor": 0.8267949192431123
      }
    }
  ],
  "meshes": [
    {
      "name": "Object_0",
      "primitives": [
        {
          "attributes": {
            "NORMAL": 1,
            "POSITION": 0,
            "TEXCOORD_0": 2
          },
          "indices": 3,
          "material": 4,
          "mode": 4
        }
      ]
    },
    {
      "name": "Object_1",
      "primitives": [
        {
          "attributes": {
            "NORMAL": 5,
            "POSITION": 4,
            "TEXCOORD_0": 6
          },
          "indices": 7,
          "material": 6,
          "mode": 4
        }
      ]
    },
    {
      "name": "Object_2",
      "primitives": [
        {
          "attributes": {
            "NORMAL": 9,
            "POSITION": 8,
            "TEXCOORD_0": 10
          },
          "indices": 11,
          "material": 8,
          "mode": 4
        }
      ]
    },
    {
      "name": "Object_3",
      "primitives": [
        {
          "attributes": {
            "NORMAL": 13,
            "POSITION": 12,
            "TEXCOORD_0": 14
          },
          "indices": 15,
          "material": 13,
          "mode": 4
        }
      ]
    },
    {
      "name": "Object_4",
      "primitives": [
        {
          "attributes": {
            "NORMAL": 17,
            "POSITION": 16,
            "TANGENT": 18,
            "TEXCOORD_0": 19
          },
          "indices": 20,
          "material": 0,
          "mode": 4
        }
      ]
    },
    {
      "name": "Object_5",
      "primitives": [
        {
          "attributes": {
            "NORMAL": 22,
            "POSITION": 21,
            "TEXCOORD_0": 23
          },
          "indices": 24,
          "material": 1,
          "mode": 4
        }
      ]
    },
    {
      "name": "Object_6",
      "primitives": [
        {
          "attributes": {
            "NORMAL": 26,
            "POSITION": 25,
            "TEXCOORD_0": 27
          },
          "indices": 28,
          "material": 2,
          "mode": 4
        }
      ]
    },
    {
      "name": "Object_7",
      "primitives": [
        {
          "attributes": {
            "NORMAL": 30,
            "POSITION": 29,
            "TEXCOORD_0": 31
          },
          "indices": 32,
          "material": 3,
          "mode": 4
        }
      ]
    },
    {
      "name": "Object_8",
      "primitives": [
        {
          "attributes": {
            "NORMAL": 34,
            "POSITION": 33,
            "TEXCOORD_0": 35
          },
          "indices": 36,
          "material": 3,
          "mode": 4
        }
      ]
    },
    {
      "name": "Object_9",
      "primitives": [
        {
          "attributes": {
            "NORMAL": 38,
            "POSITION": 37,
            "TEXCOORD_0": 39
          },
          "indices": 40,
          "material": 5,
          "mode": 4
        }
      ]
    },
    {
      "name": "Object_10",
      "primitives": [
        {
          "attributes": {
            "NORMAL": 42,
            "POSITION": 41,
            "TEXCOORD_0": 43
          },
          "indices": 44,
          "material": 7,
          "mode": 4
        }
      ]
    },
    {
      "name": "Object_11",
      "primitives": [
        {
          "attributes": {
            "NORMAL": 46,
            "POSITION": 45,
            "TEXCOORD_0": 47
          },
          "indices": 48,
          "material": 7,
          "mode": 4
        }
      ]
    },
    {
      "name": "Object_12",
      "primitives": [
        {
          "attributes": {
            "NORMAL": 50,
            "POSITION": 49,
            "TEXCOORD_0": 51
          },
          "indices": 52,
          "material": 8,
          "mode": 4
        }
      ]
    },
    {
      "name": "Object_13",
      "primitives": [
        {
          "attributes": {
            "NORMAL": 54,
            "POSITION": 53,
            "TEXCOORD_0": 55
          },
          "indices": 56,
          "material": 9,
          "mode": 4
        }
      ]
    },
    {
      "name": "Object_14",
      "primitives": [
        {
          "attributes": {
            "NORMAL": 58,
            "POSITION": 57,
            "TEXCOORD_0": 59
          },
          "indices": 60,
          "material": 10,
          "mode": 4
        }
      ]
    },
    {
      "name": "Object_15",
      "primitives": [
        {
          "attributes": {
            "NORMAL": 62,
            "POSITION": 61,
            "TEXCOORD_0": 63
          },
          "indices": 64,
          "material": 11,
          "mode": 4
        }
      ]
    },
    {
      "name": "Object_16",
      "primitives": [
        {
          "attributes": {
            "NORMAL": 66,
            "POSITION": 65,
            "TEXCOORD_0": 67
          },
          "indices": 68,
          "material": 12,
          "mode": 4
        }
      ]
    }
  ],
  "nodes": [
    {
      "children": [
        1
      ],
      "matrix": [
        0.024698179215192795,
        0.0,
        0.0,
        0.0,
        0.0,
        5.484097446205104e-18,
        -0.024698179215192795,
        0.0,
        0.0,
        0.024698179215192795,
        5.484097446205104e-18,
        0.0,
        0.0,
        0.0,
        0.0,
        1.0
      ],
      "name": "Sketchfab_model"
    },
    {
      "children": [
        2,
        3,
        4,
        5,
        6,
        7,
        8,
        9,
        10,
        11,
        12,
        13,
        14,
        15,
        16,
        17,
        18
      ],
      "name": "Farm.obj.cleaner.materialmerger.gles"
    },
    {
      "mesh": 0,
      "name": "Object_2"
    },
    {
      "mesh": 1,
      "name": "Object_3"
    },
    {
      "mesh": 2,
      "name": "Object_4"
    },
    {
      "mesh": 3,
      "name": "Object_5"
    },
    {
      "mesh": 4,
      "name": "Object_6"
    },
    {
      "mesh": 5,
      "name": "Object_7"
    },
    {
      "mesh": 6,
      "name": "Object_8"
    },
    {
      "mesh": 7,
      "name": "Object_9"
    },
    {
      "mesh": 8,
      "name": "Object_10"
    },
    {
      "mesh": 9,
      "name": "Object_11"
    },
    {
      "mesh": 10,
      "name": "Object_12"
    },
    {
      "mesh": 11,
      "name": "Object_13"
    },
    {
      "mesh": 12,
      "name": "Object_14"
    },
    {
      "mesh": 13,
      "name": "Object_15"
    },
    {
      "mesh": 14,
      "name": "Object_16"
    },
    {
      "mesh": 15,
      "name": "Object_17"
    },
    {
      "mesh": 16,
      "name": "Object_18"
    }
  ],
  "samplers": [
    {
      "magFilter": 9729,
      "minFilter": 9987,
      "wrapS": 10497,
      "wrapT": 10497
    }
  ],
  "scene": 0,
  "scenes": [
    {
      "name": "Sketchfab_Scene",
      "nodes": [
        0
      ]
    }
  ],
  "textures": [
    {
      "sampler": 0,
      "source": 0
    },
    {
      "sampler": 0,
      "source": 1
    },
    {
      "sampler": 0,
      "source": 2
    }
  ]
}
